<?xml version="1.0" standalone="no"?><!DOCTYPE svg PUBLIC "-//W3C//DTD SVG 1.1//EN" "http://www.w3.org/Graphics/SVG/1.1/DTD/svg11.dtd"><svg t="1649602952440" class="icon" viewBox="0 0 1024 1024" version="1.1" xmlns="http://www.w3.org/2000/svg" p-id="1892" xmlns:xlink="http://www.w3.org/1999/xlink" width="200" height="200"><defs><style type="text/css">@font-face { font-family: feedback-iconfont; src: url("//at.alicdn.com/t/font_1031158_u69w8yhxdu.woff2?t=1630033759944") format("woff2"), url("//at.alicdn.com/t/font_1031158_u69w8yhxdu.woff?t=1630033759944") format("woff"), url("//at.alicdn.com/t/font_1031158_u69w8yhxdu.ttf?t=1630033759944") format("truetype"); }
</style></defs><path d="M196.608 806.570667c-0.341333-19.114667 15.018667-34.474667 34.133333-34.816h562.176c9.216 0 17.749333 3.754667 24.234667 10.24 6.485333 6.485333 9.898667 15.36 10.24 24.576 0 19.114667-15.36 34.474667-34.474667 34.474666H231.082667c-19.114667 0-34.474667-15.36-34.474667-34.474666zM815.445333 703.488H208.554667c-41.642667 0-75.093333-33.792-75.093334-75.093333V291.157333c0-41.642667 33.792-75.093333 75.093334-75.093333H815.786667c41.642667 0 75.093333 33.792 75.093333 75.093333v337.237334c0 41.301333-33.792 75.093333-75.434667 75.093333z" fill="#635DF7" opacity=".7" p-id="1893"></path><path d="M323.584 553.642667c-9.557333-9.557333-9.557333-25.258667 0-34.816l59.050667-59.050667-59.050667-59.050667c-9.557333-9.557333-9.557333-25.258667 0-34.816 9.557333-9.557333 25.258667-9.557333 34.816 0l76.458667 76.458667c9.557333 9.557333 9.557333 25.258667 0 34.816L358.4 553.642667c-9.557333 9.898667-25.258667 9.898667-34.816 0zM683.008 484.352h-107.52c-13.653333 0-24.576-10.922667-24.576-24.576s10.922667-24.576 24.576-24.576h107.52c13.653333 0 24.576 10.922667 24.576 24.576s-10.922667 24.576-24.576 24.576z" fill="#FFFFFF" p-id="1894"></path></svg>